<svg xmlns="http://www.w3.org/2000/svg" viewBox="0 0 147.23 37.04"><defs><style>.cls-1{fill:#054752;}.cls-2{fill:#2dbeff;}.cls-3{fill:#9ef769;}</style></defs><title>Fichier 3</title><g id="Calque_2" data-name="Calque 2"><g id="Calque_1-2" data-name="Calque 1"><path class="cls-1" d="M28.38,18.88c-.73-5.6-4.87-9.38-9.23-8.42l1.27-9.39L15.74,0a70.23,70.23,0,0,0-3,12.07,10.78,10.78,0,0,1,3.39,6.79A12.38,12.38,0,0,1,14.4,27.1a8.48,8.48,0,0,0,1.2,1.51,6.64,6.64,0,0,0,6.19,2.09c4.39-.93,7.33-6.24,6.58-11.82Z"/><path class="cls-2" d="M12.65,12.72l.1-.63a6.71,6.71,0,0,0-5.87-1.66L8.15,1.06,3.48,0A68,68,0,0,0,.38,12.7c-.65,4.88-.62,10.1,1.37,13.79a9.6,9.6,0,0,0,1.59,2.14,6.67,6.67,0,0,0,6.21,2.08,7.85,7.85,0,0,0,4.85-3.58L14,26.5c-2-3.67-2-8.9-1.37-13.77Z"/><path class="cls-3" d="M16.13,18.88a10.88,10.88,0,0,0-3.39-6.79l-.1.63C12,17.6,12,22.83,14,26.51l.37.63a12.48,12.48,0,0,0,1.72-8.3Z"/><path class="cls-1" d="M122.63,28.66h-2.79a.21.21,0,0,0-.2.17A7.35,7.35,0,0,1,117.92,32a4.31,4.31,0,0,1-3.12,1.21,4.83,4.83,0,0,1-4.22-2.69,13.69,13.69,0,0,1-1.53-6.74,13.47,13.47,0,0,1,1.53-6.74,4.86,4.86,0,0,1,4.22-2.67,4.27,4.27,0,0,1,3.1,1.2,7.64,7.64,0,0,1,1.72,3.18.21.21,0,0,0,.2.18h2.8a.16.16,0,0,0,.13-.07.32.32,0,0,0,0-.18v-.06a10.92,10.92,0,0,0-2.71-5.79,7.18,7.18,0,0,0-5.32-2.18,7.85,7.85,0,0,0-6.43,3.64,16.61,16.61,0,0,0-2.6,9.53,16.56,16.56,0,0,0,2.6,9.53A7.79,7.79,0,0,0,114.78,37a7.19,7.19,0,0,0,5.35-2.18,10.79,10.79,0,0,0,2.7-5.84V29a.45.45,0,0,0,0-.19.18.18,0,0,0-.14-.06ZM147.1,18.08a3.32,3.32,0,0,0-.85-.1,5.44,5.44,0,0,0-1.22.15,3.82,3.82,0,0,0-1.21.58,5.3,5.3,0,0,0-1.13,1.1,5,5,0,0,0-.57.92L142,21V18.54c0-.15-.1-.27-.2-.27h-2.67c-.1,0-.19.12-.19.27V36.39c0,.13.09.26.19.26h2.69a.25.25,0,0,0,.22-.26V27.72a11.54,11.54,0,0,1,.26-2.56,4.28,4.28,0,0,1,.79-1.69,3.5,3.5,0,0,1,1.24-1,4,4,0,0,1,1.66-.32,5.21,5.21,0,0,1,1,.1h0c.11,0,.19-.1.19-.25V18.35a.22.22,0,0,0-.15-.27ZM89.25,10.66h0l-2.7.6a.28.28,0,0,0-.2.26V36.38a.26.26,0,0,0,.23.28h2.72c.1,0,.19-.13.19-.28V10.94a.25.25,0,0,0-.22-.28ZM83.68,25.42a8,8,0,0,0-1.62-2.64l-.2-.19a4.61,4.61,0,0,0-1-.75l-.1-.07.07-.08a6.74,6.74,0,0,0,.79-1.59,8,8,0,0,0,.44-2.61,8.74,8.74,0,0,0-.45-2.77,6.85,6.85,0,0,0-1.25-2.24,5.35,5.35,0,0,0-1.75-1.35,5.56,5.56,0,0,0-2.48-.51h-6a.26.26,0,0,0-.22.29V36.37a.26.26,0,0,0,.22.28h7.34a6.61,6.61,0,0,0,2.64-.46,5.81,5.81,0,0,0,1.86-1.32,8.11,8.11,0,0,0,1.62-2.64c.1-.25.17-.46.24-.69l0-.1,0-.17a9.87,9.87,0,0,0,.32-2.46,9.72,9.72,0,0,0-.64-3.42ZM73.18,14.48h2.49a5,5,0,0,1,1.77.25,2.33,2.33,0,0,1,.88.76A3.64,3.64,0,0,1,79,17.63a3.49,3.49,0,0,1-.64,2.11,2.25,2.25,0,0,1-.88.75,4,4,0,0,1-1.18.25H73.15V14.48Zm7.65,15.79a4.32,4.32,0,0,1-.64,1.31,3.6,3.6,0,0,1-1.15.93,5.07,5.07,0,0,1-2.05.34H73.17V24.59H77a5,5,0,0,1,2,.34,3.5,3.5,0,0,1,1.13.93,4.82,4.82,0,0,1,.65,1.28,4.62,4.62,0,0,1,.25,1.55,4.8,4.8,0,0,1-.25,1.58Zm21.41-10.51a5.88,5.88,0,0,0-8.19-.31,6.78,6.78,0,0,0-1.87,3.2.26.26,0,0,0,.15.32l2.53.56a.16.16,0,0,0,.2-.12A2.9,2.9,0,0,1,98,21.22a2.66,2.66,0,0,1,2.25,1A4.42,4.42,0,0,1,101,25v.65a10.74,10.74,0,0,0-3.77-.75,5.69,5.69,0,0,0-4.17,1.61,6.1,6.1,0,0,0-1.67,4.55A6.06,6.06,0,0,0,93,35.45,4.87,4.87,0,0,0,96.61,37,5.36,5.36,0,0,0,101.05,35v1.41a.29.29,0,0,0,.24.31h2.34a.27.27,0,0,0,.24-.3V24.77a7.49,7.49,0,0,0-1.62-5ZM99.86,32.33A3.76,3.76,0,0,1,97,33.59a2.51,2.51,0,0,1-1.92-.73,2.83,2.83,0,0,1-.66-2,2.52,2.52,0,0,1,.85-2,3.31,3.31,0,0,1,2.16-.69,10.06,10.06,0,0,1,3.63.76,4.6,4.6,0,0,1-1.18,3.39Zm-47-21.67h0l-2.71.6a.29.29,0,0,0-.19.26V36.38a.26.26,0,0,0,.22.28h2.72c.1,0,.2-.13.2-.28V10.94a.26.26,0,0,0-.22-.28ZM47.23,25.42a8.29,8.29,0,0,0-1.6-2.64l-.2-.19a4.88,4.88,0,0,0-1-.75l-.1-.07.07-.08a6.72,6.72,0,0,0,.78-1.59,7.7,7.7,0,0,0,.45-2.61,8.47,8.47,0,0,0-.45-2.77A6.66,6.66,0,0,0,44,12.48a5.49,5.49,0,0,0-1.73-1.35,5.59,5.59,0,0,0-2.48-.51H33.83a.26.26,0,0,0-.22.29V36.37a.26.26,0,0,0,.22.28h7.31a6.56,6.56,0,0,0,2.63-.46,5.74,5.74,0,0,0,1.87-1.32,8.47,8.47,0,0,0,1.62-2.64c.09-.25.16-.46.23-.69l0-.1a.53.53,0,0,1,0-.17,9.87,9.87,0,0,0,.32-2.46,9.72,9.72,0,0,0-.64-3.42ZM36.72,14.48h2.52a4.87,4.87,0,0,1,1.76.25,2.29,2.29,0,0,1,.89.76,3.63,3.63,0,0,1,.63,2.14,3.48,3.48,0,0,1-.63,2.11,2.21,2.21,0,0,1-.89.75,3.81,3.81,0,0,1-1.18.25h-3.1Zm7.69,15.79a4.87,4.87,0,0,1-.66,1.31,3.5,3.5,0,0,1-1.15.93,5,5,0,0,1-2,.34H36.73V24.59h3.83a5,5,0,0,1,2,.34,3.28,3.28,0,0,1,1.15.93,4.84,4.84,0,0,1,.66,1.28,4.62,4.62,0,0,1,.24,1.55,5.08,5.08,0,0,1-.25,1.58Zm21.4-10.51a5.9,5.9,0,0,0-8.2-.31,6.85,6.85,0,0,0-1.86,3.2.27.27,0,0,0,.16.32l2.52.56a.19.19,0,0,0,.23-.12,2.87,2.87,0,0,1,2.91-2.19,2.67,2.67,0,0,1,2.24,1,4.43,4.43,0,0,1,.8,2.77v.65a10.89,10.89,0,0,0-3.79-.75,5.71,5.71,0,0,0-4.17,1.61A6,6,0,0,0,55,31.08a6,6,0,0,0,1.51,4.37A4.86,4.86,0,0,0,60.15,37,5.36,5.36,0,0,0,64.59,35v1.41c0,.17.1.31.23.31h2.34a.27.27,0,0,0,.24-.3V24.77a7.49,7.49,0,0,0-1.61-5ZM63.42,32.33a3.81,3.81,0,0,1-2.9,1.26,2.51,2.51,0,0,1-1.92-.73,2.71,2.71,0,0,1-.69-2,2.49,2.49,0,0,1,.85-2,3.35,3.35,0,0,1,2.16-.69,10,10,0,0,1,3.64.76,4.55,4.55,0,0,1-1.16,3.39Zm71.73-12.57a5.9,5.9,0,0,0-8.2-.31,7,7,0,0,0-1.87,3.2.29.29,0,0,0,.17.32l2.53.56a.16.16,0,0,0,.2-.12,2.9,2.9,0,0,1,2.92-2.19,2.7,2.7,0,0,1,2.26,1A4.49,4.49,0,0,1,134,25v.65a10.84,10.84,0,0,0-3.78-.75A5.68,5.68,0,0,0,126,26.53a6.06,6.06,0,0,0-1.67,4.55,6.05,6.05,0,0,0,1.52,4.37A4.87,4.87,0,0,0,129.51,37,5.39,5.39,0,0,0,134,35v1.41c0,.17.1.31.23.31h2.34a.27.27,0,0,0,.24-.3V24.77a7.6,7.6,0,0,0-1.62-5Zm-2.41,12.57a3.74,3.74,0,0,1-2.87,1.26,2.51,2.51,0,0,1-1.92-.73,2.83,2.83,0,0,1-.66-2,2.52,2.52,0,0,1,.85-2,3.33,3.33,0,0,1,2.16-.69,9.93,9.93,0,0,1,3.63.76,4.6,4.6,0,0,1-1.18,3.39Z"/></g></g></svg>