<svg version="1.1" id="Calque_1" xmlns="http://www.w3.org/2000/svg" xmlns:xlink="http://www.w3.org/1999/xlink" x="0px" y="0px"
	 viewBox="0 0 685 327" enable-background="new 0 0 685 327" xml:space="preserve">
<g>
	<path fill="#4097E1" d="M348.1,184.6c-2.6,4.1-10.3-12.5-16.5-3.5c-1.1,1.6-5.7,15.8,4,20c11.2,4.8,18.6-7,23-31.7
		c0.2-1.2,0.1,13.4,0.7,13c0.6-0.4,1.3-0.5,2-0.2c0.7,0.3,1.2,0.9,1.6,1.7c0.4,0.8,0.5,2,0.4,3.4c-0.3,1.6-0.8,3.5-1.5,5.7
		c-0.7,2.2-8.5,16.3-23.4,16.2c-15.2-0.1-22.9-16.4-23.6-19c-0.8-2.5-1.1-5-1.1-7.4c0-2.4,0.4-4.6,1.1-6.6c0.7-2,1.5-3.4,2.4-4.2
		c0.9-0.8,5.1-8.4,20.8-4.4C353,171.6,349.1,182.9,348.1,184.6z"/>
	<path fill="#4097E1" d="M385.3,139.9c0,0-12.5,52.1-12.8,54.2c-0.6,5-0.7,7.7,3.4,9c5.8,2,11-7.5,11-7.5c7-14.6,3.8-15.8,15.3-15.3
		c1.6,0.1-3.4,6.2-3.6,7.6c-0.1,0.7-0.5,2.3-1.3,4.6c-0.7,2.3-1.8,4.8-3.2,7.2c-1.4,2.5-3.2,4.7-5.2,6.6c-2,1.9-4.3,2.9-6.7,2.9
		c-4.9,0-9.1-1.4-12.4-4.1c-3.3-2.7-6-6.1-8-10.1c-2.1-4-4.1-8.6-4.2-13c-0.7-15.9,8.8-50.2,9.7-51.3c1-1.1,2.2-1.6,3.8-1.6
		c1.4,0,3.3,0.9,5.8,1.7C387.7,134.3,385.3,139.9,385.3,139.9z"/>
	<path fill="#4097E1" d="M499.2,186c1-2.2,2.3-2.8,4.1-2c1.8,0.8,2.5,2.6,2.1,5.2c-0.2,1.8-0.7,3.7-1.4,5.7c-0.7,2-4.3,13.5-15,13.5
		c-9.7,0-15.8-12.7-17-14.8c-1.1-2-2.1-4.3-2.8-6.8c-0.8-2.5-1.2-4.7-1.4-6.8c-0.2-2-0.1-3.7,0.2-5.1c0.3-1.3,1-1.9,2-1.8
		c1,0.2,2.1,0.6,3.4,1c1.2,0.4,2.4,0.9,3.6,1.4c1.2,0.5,2.2,1.2,3.2,1.9c1,0.7,1.7,1.6,2.2,2.5c0.5,1,0.9,2.4,1.2,4.2
		c0.3,1.9,0.6,3.8,0.9,5.7c0.3,1.9,0.7,3.7,1,5.2c0.3,1.6,0.9,2.5,1.6,2.9c0.5,0.2,1.3,0.1,2.3-0.5c1-0.5,2.1-1.4,3.2-2.4
		c1.1-1.1,2.3-2.4,3.5-4C497.3,189.7,498.4,188,499.2,186z"/>
	<path fill="#4097E1" d="M349.4,152.6c7-0.5,13.9-1.1,20.6-1.9c6.7-0.7,1.7-0.4,7.1-1.1c5.4-0.7,9.9-1.3,13.4-1.8
		c3.6-0.5,5.8-0.8,6.6-0.8c1.6-0.1,3.4,0.2,5.5,0.8c2.1,0.6,4,1.3,5.7,2.1c1.8,0.8,3.2,1.8,4.3,2.7c1.1,1,1.5,1.9,1.1,2.8
		c-0.3,0.5-2,0.8-5.3,1c-3.3,0.2-7.6,0.4-12.9,0.5c-5.4,0.2-11.6,0.3-18.7,0.5c-7.1,0.2,11.8-1.7-11.4-0.5
		C342.3,158.2,349.4,152.6,349.4,152.6z"/>
	<path fill="#4097E1" d="M286.4,168.7c1.8,0,3.6,0.5,5.3,1.4c1.7,0.9,2.8,2.2,3.3,3.8c3.6,0.8,6.3,2.5,8.2,5
		c1.9,2.5,2.9,5.4,3.2,8.5c3.4,0.4,9.8-3.3,9.8-10.7c0-1.6,1.8,4.7,1.2,9.3c-0.2,1.2-3.4,10.1-12.8,11.1c-1.7,0.2-2.4,1.8-3.2,3.6
		c-0.6,1.3-5.1,8.3-16.4,8.3c-6.9,0-11.8-6.3-13.6-8.5c-1.8-2.3-2.8-4.8-2.8-7.5c-0.2-2.7,0.1-5.4,0.9-8.2c0.8-2.8,1.9-5.5,3.5-7.8
		c1.5-2.4,3.4-4.3,5.7-5.9C280.9,169.5,283.4,168.7,286.4,168.7z M282,202.1c1.2,1.6,3.3,1.6,6.1,0c2.8-1.6,5.4-4,7.8-7.3
		c-2.4-1.5-4.6-3.6-6.6-6.3c-2-2.6-3.6-5.7-4.7-9.2c-2.6,4.5-4.2,8.9-4.8,13.2C279.2,197,280,200.2,282,202.1z"/>
	<path fill="#4097E1" d="M409.3,168.7c1.8,0,3.6,0.5,5.3,1.4c1.7,0.9,2.8,2.2,3.3,3.8c3.6,0.8,6.3,2.5,8.2,5
		c1.9,2.5,2.9,5.4,3.2,8.5c3.4,0.4,9.8-3.3,9.8-10.7c0-1.6,1.8,4.7,1.2,9.3c-0.2,1.2-3.4,10.1-12.8,11.1c-1.7,0.2-2.4,1.8-3.2,3.6
		c-0.6,1.3-5.1,8.3-16.4,8.3c-6.9,0-11.8-6.3-13.6-8.5c-1.8-2.3-2.8-4.8-2.8-7.5c-0.2-2.7,0.1-5.4,0.9-8.2c0.8-2.8,1.9-5.5,3.5-7.8
		c1.5-2.4,3.4-4.3,5.7-5.9C403.8,169.5,406.4,168.7,409.3,168.7z M405,202.1c1.2,1.6,3.3,1.6,6.1,0c2.8-1.6,5.4-4,7.8-7.3
		c-2.4-1.5-4.6-3.6-6.6-6.3c-2-2.6-3.6-5.7-4.7-9.2c-2.6,4.5-4.2,8.9-4.8,13.2C402.2,197,402.9,200.2,405,202.1z"/>
	<g>
		<path fill="#4097E1" d="M473.7,184.2c-1.1-0.7-6-11.8-5.6-9.2c0.6,4.3-9.9,27.9-17.8,23.9c-8.2-4.2-5.1-17.4-4.6-18.1
			c2.1-3.4,16.1-20.3,21.9-53.9c0.6-3.3,1.9-16.2-11.5-18.5c-14.4-2.4-17.6,4.9-19,8c-5.6,12.7-3.7,57.9,1.1,76.9
			c1.1,4.3,6.8,15.1,14.4,15.1c12.2,0,18.4-12.4,19.3-14.4c1-2,1.8-3.9,2.6-5.9C475,186.3,474.8,184.9,473.7,184.2z M447.4,142.9
			c0.2-3.5,0.4-7,0.6-10.4c0.2-3.4,0.6-6.4,1.1-9.1c0.5-2.7,1.2-4.8,2.1-6.4c0.9-1.6,2-2.3,3.3-2.2c2,0.2,3.3,1.5,4,4
			c0.7,2.5,0.9,5.6,0.7,9.4c-0.2,3.7-0.8,7.8-1.8,12.3c-1,4.5-2,8.8-3.1,13c-1.6,6.2-5.3,13.8-6.1,15.2
			C447.7,155.9,447.2,149.6,447.4,142.9z"/>
	</g>
	<g>
		<path fill="none" d="M519.2,154c1.2-4.2,2.3-8.5,3.4-13c1.1-4.5,1.8-8.6,2-12.3c0.3-3.7,0-6.9-0.7-9.4c-0.8-2.5-2.2-3.8-4.4-4
			c-1.4-0.1-2.6,0.7-3.6,2.2c-1,1.6-1.8,3.7-2.4,6.4c-0.6,2.7-1,5.7-1.2,9.1c-0.2,3.4-0.5,6.9-0.6,10.4c-0.3,8.4-0.2,18,0.3,28.8
			c0.9-1.4,2.1-3.8,3.5-7.1C516.8,161.9,518.1,158.2,519.2,154z"/>
		<path fill="#4097E1" d="M551.3,184.4c-0.5-0.1-1,0-1.5,0.3c-0.5,0.3-1,0.7-1.4,1.2c-0.9,1.7-2.1,2.7-3.6,3.2
			c-1.5,0.4-3.4,0.3-5.8-0.3c0-1.4-0.3-2.9-0.8-4.3c-0.5-1.4-1.3-2.7-2.4-3.8c-1.1-1.3-2.7-2.3-4.7-2.9c-2-0.6-3.7-0.9-5-0.9
			c-1.4,0.1-2.5,0.5-3.4,1.3c-0.9,0.7-1.5,1.6-1.7,2.7c-0.2,1.1-0.1,2.3,0.3,3.6c0.4,1.3,1.2,2.7,2.3,4c-0.1,1.1-0.3,2.4-0.6,4
			c-0.3,1.6-0.7,3-1.2,4.3c-0.5,1.3-1.2,2.4-1.9,3.3c-0.7,0.8-1.5,1-2.6,0.4c-1-0.6-1.8-1.7-2.3-3.2c-0.5-1.5-0.9-3.1-1.2-4.8
			c-0.3-1.9-0.5-4-0.5-6.1c2.3-3.3,4.5-7,6.7-11.2c2.2-4.2,4.2-8.6,6-13.3c1.8-4.6,3.4-9.3,4.8-13.9c1.4-4.6,2.4-9,3.1-13.1
			c0.7-4.1,1-7.8,0.8-11.1c-0.2-3.3-0.9-5.9-2.2-7.9c-1.1-1.7-2.9-3.2-5.2-4.4c-2.3-1.3-4.8-2.2-7.2-2.9c-2.5-0.7-4.8-1.1-7-1.2
			c-2.2-0.1-3.8,0.1-4.7,0.5c-3.1,1.3-5.5,4.1-7.4,8.4c-1.9,4.3-3.2,9.3-4,15c-0.8,5.7-1.3,11.8-1.4,18.3
			c-0.1,6.5,0.1,12.7,0.7,18.4c0.5,5.8,1.2,10.8,2.1,15.2c0.9,4.3,1.8,7.3,2.9,8.9c1.4,2,10.4,16.4,22.9,16.4
			c11.7,0,15.3-14.1,12.5-14.5C546.7,195.4,551.8,184.5,551.3,184.4z M511.6,143.5c0.2-3.5,0.4-7,0.6-10.4c0.2-3.4,0.7-6.4,1.2-9.1
			c0.6-2.7,1.4-4.8,2.4-6.4c1-1.6,2.2-2.3,3.6-2.2c2.2,0.2,3.7,1.5,4.4,4c0.7,2.5,1,5.6,0.7,9.4c-0.2,3.7-0.9,7.8-2,12.3
			c-1.1,4.5-2.2,8.8-3.4,13c-1.2,4.2-2.5,7.9-3.9,11.2c-1.4,3.3-2.6,5.7-3.5,7.1C511.4,161.5,511.3,151.9,511.6,143.5z M530.3,185.3
			c-0.4-0.3-0.8-0.7-1.1-1c-0.4-0.3-0.7-0.7-0.9-1c-0.3-0.3-0.4-0.6-0.5-0.8c-0.1-0.3-0.1-0.5,0.1-0.6c0.2-0.2,0.5-0.3,0.9-0.1
			c0.4,0.2,0.8,0.4,1.2,0.8c0.4,0.4,0.8,0.8,1.2,1.3c0.4,0.5,0.8,1.1,1.2,1.6c0.4,0.5,0.7,1,0.9,1.4c0.2,0.5,0.4,0.8,0.5,1
			C532.4,187,531.3,186.1,530.3,185.3z"/>
	</g>
	<path fill="#4097E1" d="M482.9,154.1c0,4-3.1,7.3-7,7.3c-3.9,0-7-3.3-7-7.3c0-4,3.1-7.3,7-7.3C479.8,146.8,482.9,150,482.9,154.1z"
		/>
	<path fill="#4097E1" d="M152.3,164.1c0,0-0.1,0.3-0.4,0.9c-0.3,0.6-0.6,1.4-1,2.4c-0.8,2.1-1.9,5.2-2.4,8.9c-0.2,1.9-0.4,3.9-0.3,6
		c0,1.1,0.1,2.2,0.3,3.3c0.1,0.6,0.1,1.1,0.2,1.3c0.1,0.4,0.2,0.8,0.4,1.3c1.2,3.5,4.9,7.7,10,11.4c5.1,3.7,11.5,7.2,18.5,10.6
		c7,3.3,15,6.5,23.7,7.8c4.4,0.6,8.9,0.7,13.4,0.1c2.2-0.3,4.5-0.8,6.7-1.4c2.2-0.7,4.3-1.5,6.4-2.5c4.1-2,7.8-4.8,10.9-8.1
		c3-3.3,5.4-7.2,7.2-11.3c0.9-2,1.6-4.1,2.3-6.2c0.6-2.1,1.1-4.2,1.7-6.7c0.1-0.6,0.3-1.2,0.4-1.8l0.4-1.7c0.2-1.1,0.5-2.2,0.7-3.3
		c0.2-1.1,0.5-2.3,0.7-3.4c0.2-1.1,0.4-2.2,0.6-3.3c1.5-8.9,1.8-17.6,0.4-25c-0.7-3.7-1.9-7-3.4-9.8c-0.8-1.4-1.7-2.7-2.6-4
		c-1-1.2-2-2.4-3.2-3.4c-4.7-4.2-11-7.1-17.3-8.9c-6.4-1.8-12.7-2.8-18.4-3.4c-5.7-0.6-10.8-0.8-15.1-0.9c-4.2-0.1-7.6-0.1-9.9-0.1
		c-2.3,0-3.5,0-3.5,0l-0.9,0l-0.3-1.2l0.8-0.4c0,0,1.1-0.6,3.3-1.5c2.2-0.9,5.4-2.2,9.7-3.4c4.2-1.3,9.5-2.5,15.7-3.4
		c6.2-0.8,13.4-1.3,21.5-0.3c4,0.5,8.3,1.3,12.7,2.9c1.1,0.4,2.2,0.8,3.3,1.3c1.1,0.5,2.2,1,3.3,1.6c2.2,1.1,4.4,2.5,6.4,4.1
		c2.1,1.6,4,3.5,5.9,5.5c1.8,2.1,3.4,4.4,4.7,6.8c1.3,2.5,2.5,5,3.2,7.7c0.5,1.3,0.7,2.7,1.1,4c0.3,1.3,0.5,2.7,0.7,4
		c0.7,5.4,0.6,10.7,0,15.9c-0.6,5.2-1.7,10.3-3,15.2c-0.4,1.2-0.7,2.5-1.1,3.7c-0.4,1.2-0.8,2.4-1.2,3.6c-0.4,1.2-0.9,2.4-1.4,3.6
		l-0.7,1.8c-0.2,0.6-0.5,1.1-0.7,1.7l-1.5,3.5c-0.6,1.2-1.2,2.4-1.8,3.6c-1.3,2.4-2.7,4.7-4.4,6.8c-3.2,4.3-7.1,8.2-11.3,11.3
		c-4.2,3.2-8.8,5.7-13.5,7.6c-1.2,0.5-2.4,0.9-3.5,1.3c-1.2,0.4-2.4,0.8-3.6,1.1c-2.4,0.7-4.8,1.3-7.2,1.7c-4.8,1-9.7,1.6-14.5,1.9
		c-9.6,0.6-19.2,0.1-28-2.1c-8.8-2.2-16.8-6.2-23.2-11.6c-3.3-2.6-6.1-5.6-8.5-8.9c-2.3-3.3-4.2-7.1-5-11.2c-0.2-1-0.3-2-0.4-3.1
		c-0.1-1.2-0.1-2.1,0.1-2.9c0.1-0.8,0.2-1.6,0.4-2.4c0.1-0.8,0.3-1.5,0.5-2.3c0.8-3,1.9-5.5,3.2-7.7c2.6-4.3,5.5-6.8,7.6-8.2
		c0.5-0.4,1-0.7,1.4-0.9c0.4-0.3,0.8-0.4,1-0.6c0.6-0.3,0.9-0.4,0.9-0.4l0.8-0.4l0.8,0.7L152.3,164.1z"/>
	<g>
		<path fill="#4097E1" d="M209.6,132.8c-3.7,18.7-7.3,37.3-11,56c-1.2,6.1,11.5-1,12.4-5.1c3.7-18.7,7.3-37.3,11-56
			C223.1,121.5,210.4,128.6,209.6,132.8L209.6,132.8z"/>
	</g>
</g>
</svg>
